<svg xmlns:dc="http://purl.org/dc/elements/1.1/" xmlns:cc="http://creativecommons.org/ns#" xmlns:rdf="http://www.w3.org/1999/02/22-rdf-syntax-ns#" xmlns:svg="http://www.w3.org/2000/svg" xmlns="http://www.w3.org/2000/svg" xmlns:sodipodi="http://sodipodi.sourceforge.net/DTD/sodipodi-0.dtd" xmlns:inkscape="http://www.inkscape.org/namespaces/inkscape" id="svg2" xml:space="preserve" width="758.56982" height="250" viewBox="0 0 758.56985 250.00001" sodipodi:docname="Creative Hub Ethiopia.svg" inkscape:version="1.0.2 (e86c870879, 2021-01-15)"><metadata></metadata><defs id="defs6"><clipPath clipPathUnits="userSpaceOnUse" id="clipPath20"><path d="M 0,1000 H 1000 V 0 H 0 Z" id="path18"></path></clipPath></defs><g id="g10" inkscape:groupmode="layer" inkscape:label="Creative Hub Addis Ababa Logo " transform="matrix(1.3333333,0,0,-1.3333333,1.4607005e-4,1333.3333)"><g id="g853" transform="matrix(1.0210639,0,0,1.0210639,-174.8281,395.71805)"><g id="g1503"><g aria-label="CREATIVE HUB" transform="scale(1,-1)" id="text886" style="font-style:normal;font-weight:normal;font-size:44.8105px;line-height:1.25;font-family:sans-serif;letter-spacing:0px;word-spacing:0px;fill:#1a1a1a;fill-opacity:1;stroke:none;stroke-width:1.02581"><path d="m 397.31441,-534.42466 q 0,-4.6603 2.01647,-8.28995 2.01647,-3.67446 5.60131,-5.69093 3.62966,-2.06128 8.20033,-2.06128 5.60131,0 9.58944,2.95749 3.98814,2.95749 5.33245,8.06589 h -8.42437 q -0.94102,-1.97166 -2.68863,-3.0023 -1.7028,-1.03064 -3.89851,-1.03064 -3.54003,0 -5.73575,2.46457 -2.19571,2.46458 -2.19571,6.58715 0,4.12256 2.19571,6.58714 2.19572,2.46458 5.73575,2.46458 2.19571,0 3.89851,-1.03064 1.74761,-1.03065 2.68863,-3.00231 h 8.42437 q -1.34431,5.1084 -5.33245,8.06589 -3.98813,2.91269 -9.58944,2.91269 -4.57067,0 -8.20033,-2.01648 -3.58484,-2.06128 -5.60131,-5.69093 -2.01647,-3.62965 -2.01647,-8.28994 z" style="font-style:normal;font-variant:normal;font-weight:bold;font-stretch:normal;font-size:44.8105px;font-family:Poppins;-inkscape-font-specification:'Poppins Bold';fill:#1a1a1a;fill-opacity:1;stroke-width:1.02581" id="path1453"></path><path d="m 448.80163,-518.65137 -6.54233,-11.87478 h -1.83723 v 11.87478 h -7.66259 v -31.45697 h 12.86061 q 3.71927,0 6.31828,1.29951 2.64382,1.2995 3.94332,3.58484 1.29951,2.24052 1.29951,5.01877 0,3.13674 -1.79242,5.60131 -1.74761,2.46458 -5.19802,3.49522 l 7.2593,12.45732 z m -8.37956,-17.29685 h 4.74991 q 2.1061,0 3.13674,-1.03064 1.07545,-1.03064 1.07545,-2.91268 0,-1.79242 -1.07545,-2.82307 -1.03064,-1.03064 -3.13674,-1.03064 h -4.74991 z" style="font-style:normal;font-variant:normal;font-weight:bold;font-stretch:normal;font-size:44.8105px;font-family:Poppins;-inkscape-font-specification:'Poppins Bold';fill:#1a1a1a;fill-opacity:1;stroke-width:1.02581" id="path1455"></path><path d="m 469.63845,-543.9693 v 6.36309 h 10.26161 v 5.91499 h -10.26161 v 6.90081 h 11.60592 v 6.13904 h -19.26851 v -31.45697 h 19.26851 v 6.13904 z" style="font-style:normal;font-variant:normal;font-weight:bold;font-stretch:normal;font-size:44.8105px;font-family:Poppins;-inkscape-font-specification:'Poppins Bold';fill:#1a1a1a;fill-opacity:1;stroke-width:1.02581" id="path1457"></path><path d="m 505.80046,-524.20787 h -11.74035 l -1.88204,5.5565 h -8.02108 l 11.38186,-31.45697 h 8.87248 l 11.38187,31.45697 h -8.1107 z m -1.97166,-5.91499 -3.89852,-11.51629 -3.8537,11.51629 z" style="font-style:normal;font-variant:normal;font-weight:bold;font-stretch:normal;font-size:44.8105px;font-family:Poppins;-inkscape-font-specification:'Poppins Bold';fill:#1a1a1a;fill-opacity:1;stroke-width:1.02581" id="path1459"></path><path d="m 541.87289,-550.10834 v 6.13904 h -8.33476 v 25.31793 h -7.66259 v -25.31793 h -8.33476 v -6.13904 z" style="font-style:normal;font-variant:normal;font-weight:bold;font-stretch:normal;font-size:44.8105px;font-family:Poppins;-inkscape-font-specification:'Poppins Bold';fill:#1a1a1a;fill-opacity:1;stroke-width:1.02581" id="path1461"></path><path d="m 553.38917,-550.10834 v 31.45697 h -7.6626 v -31.45697 z" style="font-style:normal;font-variant:normal;font-weight:bold;font-stretch:normal;font-size:44.8105px;font-family:Poppins;-inkscape-font-specification:'Poppins Bold';fill:#1a1a1a;fill-opacity:1;stroke-width:1.02581" id="path1463"></path><path d="m 588.47571,-550.10834 -11.15781,31.45697 h -9.58945 l -11.15781,-31.45697 h 8.15551 l 7.79703,23.74957 7.84183,-23.74957 z" style="font-style:normal;font-variant:normal;font-weight:bold;font-stretch:normal;font-size:44.8105px;font-family:Poppins;-inkscape-font-specification:'Poppins Bold';fill:#1a1a1a;fill-opacity:1;stroke-width:1.02581" id="path1465"></path><path d="m 599.31983,-543.9693 v 6.36309 h 10.2616 v 5.91499 h -10.2616 v 6.90081 h 11.60592 v 6.13904 h -19.26852 v -31.45697 h 19.26852 v 6.13904 z" style="font-style:normal;font-variant:normal;font-weight:bold;font-stretch:normal;font-size:44.8105px;font-family:Poppins;-inkscape-font-specification:'Poppins Bold';fill:#1a1a1a;fill-opacity:1;stroke-width:1.02581" id="path1467"></path><path d="m 652.64425,-550.10834 v 31.45697 h -7.66259 v -12.95023 h -11.9196 v 12.95023 h -7.66259 v -31.45697 h 7.66259 v 12.32289 h 11.9196 v -12.32289 z" style="font-style:normal;font-variant:normal;font-weight:bold;font-stretch:normal;font-size:44.8105px;font-family:Poppins;-inkscape-font-specification:'Poppins Bold';fill:#1a1a1a;fill-opacity:1;stroke-width:1.02581" id="path1469"></path><path d="m 665.68407,-550.10834 v 18.82041 q 0,2.82306 1.38913,4.34662 1.38912,1.52356 4.07775,1.52356 2.68863,0 4.12257,-1.52356 1.43393,-1.52356 1.43393,-4.34662 v -18.82041 h 7.6626 v 18.7756 q 0,4.21219 -1.79242,7.12487 -1.79242,2.91268 -4.83953,4.39143 -3.00231,1.47875 -6.72158,1.47875 -3.71927,0 -6.67676,-1.43394 -2.91269,-1.47875 -4.61549,-4.39143 -1.7028,-2.95749 -1.7028,-7.16968 v -18.7756 z" style="font-style:normal;font-variant:normal;font-weight:bold;font-stretch:normal;font-size:44.8105px;font-family:Poppins;-inkscape-font-specification:'Poppins Bold';fill:#1a1a1a;fill-opacity:1;stroke-width:1.02581" id="path1471"></path><path d="m 708.79177,-534.78315 q 2.73344,0.58254 4.39143,2.73344 1.65799,2.1061 1.65799,4.83954 0,3.94332 -2.77825,6.27347 -2.73344,2.28533 -7.6626,2.28533 h -14.65303 v -31.45697 h 14.16011 q 4.79473,0 7.48336,2.19572 2.73344,2.19571 2.73344,5.95979 0,2.77825 -1.47875,4.61548 -1.43393,1.83723 -3.8537,2.5542 z m -11.38187,-2.59901 h 5.01878 q 1.88204,0 2.86787,-0.80659 1.03064,-0.8514 1.03064,-2.46457 0,-1.61318 -1.03064,-2.46458 -0.98583,-0.8514 -2.86787,-0.8514 h -5.01878 z m 5.64613,12.54694 q 1.92685,0 2.95749,-0.8514 1.07545,-0.89621 1.07545,-2.55419 0,-1.65799 -1.12026,-2.59901 -1.07545,-0.94102 -3.00231,-0.94102 h -5.5565 v 6.94562 z" style="font-style:normal;font-variant:normal;font-weight:bold;font-stretch:normal;font-size:44.8105px;font-family:Poppins;-inkscape-font-specification:'Poppins Bold';fill:#1a1a1a;fill-opacity:1;stroke-width:1.02581" id="path1473"></path></g><g id="g14" inkscape:export-xdpi="513.34003" inkscape:export-ydpi="513.34003" style="fill:#1a1a1a"><g id="g16" clip-path="url(#clipPath20)" style="fill:#1a1a1a"><g id="g22" transform="translate(345.1504,477.585)" style="fill:#1a1a1a"><path d="m 0,0 c 2.313,0 4.597,-0.138 6.84,-0.407 -8.062,-31.528 -32.439,-56.519 -63.605,-65.447 -8.051,-2.314 -16.556,-3.547 -25.347,-3.547 -50.712,0 -91.817,41.105 -91.817,91.816 0,50.711 41.105,91.816 91.817,91.816 8.791,0 17.296,-1.233 25.347,-3.546 C -25.599,101.756 -1.222,76.765 6.84,45.237 4.597,44.968 2.313,44.83 0,44.83 c -14.748,0 -28.193,5.561 -38.35,14.702 -1.676,1.974 -3.483,3.839 -5.412,5.567 -10.163,9.14 -23.608,14.702 -38.35,14.702 -31.694,0 -57.386,-25.692 -57.386,-57.386 0,-31.694 25.692,-57.386 57.386,-57.386 14.742,0 28.187,5.562 38.35,14.702 1.929,1.728 3.736,3.593 5.412,5.567 C -28.193,-5.561 -14.748,0 0,0" style="fill:#1a1a1a;fill-opacity:1;fill-rule:nonzero;stroke:none" id="path24"></path></g><g id="g26" transform="translate(377.269,500)" style="fill:#1a1a1a"><path d="m 0,0 c 0,-12.378 -10.037,-22.415 -22.415,-22.415 -0.918,0 -1.824,0.058 -2.72,0.161 1.78,7.121 2.72,14.581 2.72,22.254 0,7.673 -0.94,15.133 -2.72,22.254 0.896,0.103 1.802,0.161 2.72,0.161 C -10.037,22.415 0,12.378 0,0" style="fill:#1a1a1a;fill-opacity:1;fill-rule:nonzero;stroke:none" id="path28"></path></g></g></g><g aria-label="ETHIOPIA" transform="scale(1,-1)" id="text864" style="font-style:normal;font-weight:normal;font-size:54.8448px;line-height:1.25;font-family:sans-serif;letter-spacing:14.6906px;word-spacing:0px;fill:#1a1a1a;fill-opacity:1;stroke:none;stroke-width:1.07616"><path d="m 402.03106,-492.89066 v 12.77884 h 13.93058 v 4.11336 h -13.93058 v 13.16275 h 15.57593 v 4.11336 h -20.5668 v -38.28167 h 20.5668 v 4.11336 z" style="font-style:normal;font-variant:normal;font-weight:normal;font-stretch:normal;font-size:54.8448px;font-family:Poppins;-inkscape-font-specification:'Poppins weight=275';fill:#1a1a1a;fill-opacity:1;stroke-width:1.07616" id="path1436"></path><path d="m 463.39451,-496.94918 v 4.05852 H 452.974 v 34.16831 h -4.99088 v -34.16831 h -10.47535 v -4.05852 z" style="font-style:normal;font-variant:normal;font-weight:normal;font-stretch:normal;font-size:54.8448px;font-family:Poppins;-inkscape-font-specification:'Poppins weight=275';fill:#1a1a1a;fill-opacity:1;stroke-width:1.07616" id="path1438"></path><path d="m 513.6793,-496.94918 v 38.22683 h -4.99088 v -17.33096 h -19.4699 v 17.33096 h -4.99088 v -38.22683 h 4.99088 v 16.78251 h 19.4699 v -16.78251 z" style="font-style:normal;font-variant:normal;font-weight:normal;font-stretch:normal;font-size:54.8448px;font-family:Poppins;-inkscape-font-specification:'Poppins weight=275';fill:#1a1a1a;fill-opacity:1;stroke-width:1.07616" id="path1440"></path><path d="m 541.86169,-496.94918 v 38.22683 h -4.99087 v -38.22683 z" style="font-style:normal;font-variant:normal;font-weight:normal;font-stretch:normal;font-size:54.8448px;font-family:Poppins;-inkscape-font-specification:'Poppins weight=275';fill:#1a1a1a;fill-opacity:1;stroke-width:1.07616" id="path1442"></path><path d="m 582.3841,-458.33844 q -5.31995,0 -9.70753,-2.46801 -4.38758,-2.52286 -6.96529,-6.96529 -2.52286,-4.49728 -2.52286,-10.09145 0,-5.59417 2.52286,-10.03659 2.57771,-4.49728 6.96529,-6.96529 4.38758,-2.52286 9.70753,-2.52286 5.37479,0 9.76237,2.52286 4.38759,2.46801 6.91045,6.91044 2.52286,4.44243 2.52286,10.09144 0,5.64902 -2.52286,10.09145 -2.52286,4.44243 -6.91045,6.96529 -4.38758,2.46801 -9.76237,2.46801 z m 0,-4.33274 q 4.00367,0 7.18467,-1.86472 3.23584,-1.86472 5.04572,-5.31995 1.86472,-3.45522 1.86472,-8.00734 0,-4.60696 -1.86472,-8.00734 -1.80988,-3.45522 -4.99088,-5.31994 -3.181,-1.86473 -7.23951,-1.86473 -4.05852,0 -7.23951,1.86473 -3.181,1.86472 -5.04573,5.31994 -1.80987,3.40038 -1.80987,8.00734 0,4.55212 1.80987,8.00734 1.86473,3.45523 5.04573,5.31995 3.23584,1.86472 7.23951,1.86472 z" style="font-style:normal;font-variant:normal;font-weight:normal;font-stretch:normal;font-size:54.8448px;font-family:Poppins;-inkscape-font-specification:'Poppins weight=275';fill:#1a1a1a;fill-opacity:1;stroke-width:1.07616" id="path1444"></path><path d="m 648.4094,-485.76084 q 0,4.7715 -3.29068,7.9525 -3.23585,3.12615 -9.92691,3.12615 h -7.34921 v 15.95984 h -4.99087 v -38.22683 h 12.34008 q 6.47168,0 9.81722,3.12616 3.40037,3.12615 3.40037,8.06218 z m -13.21759,6.96529 q 4.1682,0 6.14261,-1.80988 1.97442,-1.80987 1.97442,-5.15541 0,-7.07498 -8.11703,-7.07498 h -7.34921 v 14.04027 z" style="font-style:normal;font-variant:normal;font-weight:normal;font-stretch:normal;font-size:54.8448px;font-family:Poppins;-inkscape-font-specification:'Poppins weight=275';fill:#1a1a1a;fill-opacity:1;stroke-width:1.07616" id="path1446"></path><path d="m 674.28827,-496.94918 v 38.22683 h -4.99088 v -38.22683 z" style="font-style:normal;font-variant:normal;font-weight:normal;font-stretch:normal;font-size:54.8448px;font-family:Poppins;-inkscape-font-specification:'Poppins weight=275';fill:#1a1a1a;fill-opacity:1;stroke-width:1.07616" id="path1448"></path><path d="m 720.07576,-467.22329 h -16.67282 l -3.07131,8.50094 h -5.2651 l 13.82089,-38.00745 h 5.7587 l 13.76605,38.00745 h -5.2651 z m -1.42597,-4.05852 -6.91044,-19.30537 -6.91044,19.30537 z" style="font-style:normal;font-variant:normal;font-weight:normal;font-stretch:normal;font-size:54.8448px;font-family:Poppins;-inkscape-font-specification:'Poppins weight=275';fill:#1a1a1a;fill-opacity:1;stroke-width:1.07616" id="path1450"></path></g></g></g></g></svg>